<mxfile host="app.diagrams.net" modified="2022-08-11T11:37:56.660Z" agent="5.0 (X11; Linux x86_64) AppleWebKit/537.36 (KHTML, like Gecko) Chrome/104.0.0.0 Safari/537.36" etag="Ii2bxjKPUy6xOFdU287N" version="20.2.3" type="github">
  <diagram id="7k72RgLPqFwJHOSrJLX6" name="Page-1">
    <mxGraphModel dx="1689" dy="558" grid="1" gridSize="10" guides="1" tooltips="1" connect="1" arrows="1" fold="1" page="1" pageScale="1" pageWidth="827" pageHeight="1169" math="0" shadow="0">
      <root>
        <mxCell id="0" />
        <mxCell id="1" parent="0" />
        <mxCell id="iV4vv4JSHI51m6sYlncN-14" style="edgeStyle=orthogonalEdgeStyle;rounded=0;orthogonalLoop=1;jettySize=auto;html=1;exitX=0;exitY=0.5;exitDx=0;exitDy=0;entryX=0.5;entryY=1;entryDx=0;entryDy=0;" edge="1" parent="1" source="iV4vv4JSHI51m6sYlncN-1" target="iV4vv4JSHI51m6sYlncN-2">
          <mxGeometry relative="1" as="geometry" />
        </mxCell>
        <mxCell id="iV4vv4JSHI51m6sYlncN-15" style="edgeStyle=orthogonalEdgeStyle;rounded=0;orthogonalLoop=1;jettySize=auto;html=1;entryX=1;entryY=0.5;entryDx=0;entryDy=0;" edge="1" parent="1" source="iV4vv4JSHI51m6sYlncN-1" target="iV4vv4JSHI51m6sYlncN-6">
          <mxGeometry relative="1" as="geometry" />
        </mxCell>
        <mxCell id="iV4vv4JSHI51m6sYlncN-16" style="edgeStyle=orthogonalEdgeStyle;rounded=0;orthogonalLoop=1;jettySize=auto;html=1;entryX=0;entryY=0.5;entryDx=0;entryDy=0;" edge="1" parent="1" source="iV4vv4JSHI51m6sYlncN-1" target="iV4vv4JSHI51m6sYlncN-10">
          <mxGeometry relative="1" as="geometry" />
        </mxCell>
        <mxCell id="iV4vv4JSHI51m6sYlncN-20" style="edgeStyle=orthogonalEdgeStyle;rounded=0;orthogonalLoop=1;jettySize=auto;html=1;entryX=0;entryY=0.6;entryDx=0;entryDy=0;entryPerimeter=0;" edge="1" parent="1" source="iV4vv4JSHI51m6sYlncN-1" target="iV4vv4JSHI51m6sYlncN-5">
          <mxGeometry relative="1" as="geometry" />
        </mxCell>
        <mxCell id="iV4vv4JSHI51m6sYlncN-22" style="edgeStyle=orthogonalEdgeStyle;rounded=0;orthogonalLoop=1;jettySize=auto;html=1;entryX=1;entryY=0.5;entryDx=0;entryDy=0;" edge="1" parent="1" source="iV4vv4JSHI51m6sYlncN-1" target="iV4vv4JSHI51m6sYlncN-12">
          <mxGeometry relative="1" as="geometry" />
        </mxCell>
        <mxCell id="iV4vv4JSHI51m6sYlncN-24" style="edgeStyle=orthogonalEdgeStyle;rounded=0;orthogonalLoop=1;jettySize=auto;html=1;entryX=0;entryY=0.5;entryDx=0;entryDy=0;" edge="1" parent="1" source="iV4vv4JSHI51m6sYlncN-1" target="iV4vv4JSHI51m6sYlncN-13">
          <mxGeometry relative="1" as="geometry" />
        </mxCell>
        <mxCell id="iV4vv4JSHI51m6sYlncN-34" style="edgeStyle=orthogonalEdgeStyle;rounded=0;orthogonalLoop=1;jettySize=auto;html=1;entryX=0.618;entryY=1.065;entryDx=0;entryDy=0;entryPerimeter=0;" edge="1" parent="1" source="iV4vv4JSHI51m6sYlncN-1" target="iV4vv4JSHI51m6sYlncN-32">
          <mxGeometry relative="1" as="geometry" />
        </mxCell>
        <mxCell id="iV4vv4JSHI51m6sYlncN-38" style="edgeStyle=orthogonalEdgeStyle;rounded=0;orthogonalLoop=1;jettySize=auto;html=1;" edge="1" parent="1" source="iV4vv4JSHI51m6sYlncN-1" target="iV4vv4JSHI51m6sYlncN-37">
          <mxGeometry relative="1" as="geometry" />
        </mxCell>
        <mxCell id="iV4vv4JSHI51m6sYlncN-43" style="edgeStyle=orthogonalEdgeStyle;rounded=0;orthogonalLoop=1;jettySize=auto;html=1;" edge="1" parent="1" source="iV4vv4JSHI51m6sYlncN-1">
          <mxGeometry relative="1" as="geometry">
            <mxPoint x="340" y="580" as="targetPoint" />
          </mxGeometry>
        </mxCell>
        <mxCell id="iV4vv4JSHI51m6sYlncN-1" value="Mobile App" style="rounded=1;whiteSpace=wrap;html=1;" vertex="1" parent="1">
          <mxGeometry x="328" y="350" width="86" height="40" as="geometry" />
        </mxCell>
        <mxCell id="iV4vv4JSHI51m6sYlncN-17" style="edgeStyle=orthogonalEdgeStyle;rounded=0;orthogonalLoop=1;jettySize=auto;html=1;entryX=0;entryY=0.5;entryDx=0;entryDy=0;" edge="1" parent="1" source="iV4vv4JSHI51m6sYlncN-2" target="iV4vv4JSHI51m6sYlncN-9">
          <mxGeometry relative="1" as="geometry" />
        </mxCell>
        <mxCell id="iV4vv4JSHI51m6sYlncN-23" style="edgeStyle=orthogonalEdgeStyle;rounded=0;orthogonalLoop=1;jettySize=auto;html=1;entryX=0.444;entryY=0.029;entryDx=0;entryDy=0;entryPerimeter=0;" edge="1" parent="1" source="iV4vv4JSHI51m6sYlncN-2" target="iV4vv4JSHI51m6sYlncN-12">
          <mxGeometry relative="1" as="geometry" />
        </mxCell>
        <mxCell id="iV4vv4JSHI51m6sYlncN-33" style="edgeStyle=orthogonalEdgeStyle;rounded=0;orthogonalLoop=1;jettySize=auto;html=1;" edge="1" parent="1" source="iV4vv4JSHI51m6sYlncN-2" target="iV4vv4JSHI51m6sYlncN-32">
          <mxGeometry relative="1" as="geometry" />
        </mxCell>
        <mxCell id="iV4vv4JSHI51m6sYlncN-2" value="Nellys Coin" style="rounded=1;whiteSpace=wrap;html=1;" vertex="1" parent="1">
          <mxGeometry x="240" y="250" width="100" height="40" as="geometry" />
        </mxCell>
        <mxCell id="iV4vv4JSHI51m6sYlncN-27" style="edgeStyle=orthogonalEdgeStyle;rounded=0;orthogonalLoop=1;jettySize=auto;html=1;entryX=0.3;entryY=0;entryDx=0;entryDy=0;entryPerimeter=0;" edge="1" parent="1" source="iV4vv4JSHI51m6sYlncN-3" target="iV4vv4JSHI51m6sYlncN-2">
          <mxGeometry relative="1" as="geometry" />
        </mxCell>
        <mxCell id="iV4vv4JSHI51m6sYlncN-3" value="Jamal Partners" style="rounded=1;whiteSpace=wrap;html=1;" vertex="1" parent="1">
          <mxGeometry y="230" width="90" height="40" as="geometry" />
        </mxCell>
        <mxCell id="iV4vv4JSHI51m6sYlncN-36" style="edgeStyle=orthogonalEdgeStyle;rounded=0;orthogonalLoop=1;jettySize=auto;html=1;entryX=0.25;entryY=1;entryDx=0;entryDy=0;" edge="1" parent="1" source="iV4vv4JSHI51m6sYlncN-4" target="iV4vv4JSHI51m6sYlncN-2">
          <mxGeometry relative="1" as="geometry" />
        </mxCell>
        <mxCell id="iV4vv4JSHI51m6sYlncN-4" value="Mathias Notification" style="rounded=1;whiteSpace=wrap;html=1;" vertex="1" parent="1">
          <mxGeometry x="-30" y="320" width="90" height="40" as="geometry" />
        </mxCell>
        <mxCell id="iV4vv4JSHI51m6sYlncN-5" value="Zeus Lightning&lt;br&gt;" style="rounded=1;whiteSpace=wrap;html=1;" vertex="1" parent="1">
          <mxGeometry x="460" y="465" width="100" height="50" as="geometry" />
        </mxCell>
        <mxCell id="iV4vv4JSHI51m6sYlncN-28" style="edgeStyle=orthogonalEdgeStyle;rounded=0;orthogonalLoop=1;jettySize=auto;html=1;entryX=1;entryY=0.5;entryDx=0;entryDy=0;" edge="1" parent="1" source="iV4vv4JSHI51m6sYlncN-6" target="iV4vv4JSHI51m6sYlncN-7">
          <mxGeometry relative="1" as="geometry" />
        </mxCell>
        <mxCell id="iV4vv4JSHI51m6sYlncN-6" value="Indexer API" style="rounded=1;whiteSpace=wrap;html=1;" vertex="1" parent="1">
          <mxGeometry x="230" y="465" width="100" height="45" as="geometry" />
        </mxCell>
        <mxCell id="iV4vv4JSHI51m6sYlncN-31" style="edgeStyle=orthogonalEdgeStyle;rounded=0;orthogonalLoop=1;jettySize=auto;html=1;entryX=0;entryY=0.75;entryDx=0;entryDy=0;" edge="1" parent="1" source="iV4vv4JSHI51m6sYlncN-7" target="iV4vv4JSHI51m6sYlncN-4">
          <mxGeometry relative="1" as="geometry" />
        </mxCell>
        <mxCell id="iV4vv4JSHI51m6sYlncN-7" value="Indexer" style="rounded=1;whiteSpace=wrap;html=1;" vertex="1" parent="1">
          <mxGeometry x="50" y="470" width="90" height="40" as="geometry" />
        </mxCell>
        <mxCell id="iV4vv4JSHI51m6sYlncN-9" value="Mels Delivery" style="rounded=1;whiteSpace=wrap;html=1;" vertex="1" parent="1">
          <mxGeometry x="480" y="160" width="100" height="40" as="geometry" />
        </mxCell>
        <mxCell id="iV4vv4JSHI51m6sYlncN-18" style="edgeStyle=orthogonalEdgeStyle;rounded=0;orthogonalLoop=1;jettySize=auto;html=1;entryX=0.583;entryY=1;entryDx=0;entryDy=0;entryPerimeter=0;" edge="1" parent="1" source="iV4vv4JSHI51m6sYlncN-10" target="iV4vv4JSHI51m6sYlncN-9">
          <mxGeometry relative="1" as="geometry" />
        </mxCell>
        <mxCell id="iV4vv4JSHI51m6sYlncN-41" style="edgeStyle=orthogonalEdgeStyle;rounded=0;orthogonalLoop=1;jettySize=auto;html=1;" edge="1" parent="1" source="iV4vv4JSHI51m6sYlncN-10" target="iV4vv4JSHI51m6sYlncN-39">
          <mxGeometry relative="1" as="geometry" />
        </mxCell>
        <mxCell id="iV4vv4JSHI51m6sYlncN-10" value="Tokenized Bonds" style="rounded=1;whiteSpace=wrap;html=1;" vertex="1" parent="1">
          <mxGeometry x="480" y="360" width="110" height="40" as="geometry" />
        </mxCell>
        <mxCell id="iV4vv4JSHI51m6sYlncN-21" style="edgeStyle=orthogonalEdgeStyle;rounded=0;orthogonalLoop=1;jettySize=auto;html=1;entryX=0.818;entryY=1.067;entryDx=0;entryDy=0;entryPerimeter=0;" edge="1" parent="1" source="iV4vv4JSHI51m6sYlncN-11" target="iV4vv4JSHI51m6sYlncN-10">
          <mxGeometry relative="1" as="geometry" />
        </mxCell>
        <mxCell id="iV4vv4JSHI51m6sYlncN-11" value="TB Panel" style="rounded=1;whiteSpace=wrap;html=1;" vertex="1" parent="1">
          <mxGeometry x="640" y="470" width="100" height="40" as="geometry" />
        </mxCell>
        <mxCell id="iV4vv4JSHI51m6sYlncN-12" value="Baptiste Panel" style="rounded=1;whiteSpace=wrap;html=1;" vertex="1" parent="1">
          <mxGeometry x="90" y="350" width="110" height="40" as="geometry" />
        </mxCell>
        <mxCell id="iV4vv4JSHI51m6sYlncN-13" value="Baptiste Order" style="rounded=1;whiteSpace=wrap;html=1;" vertex="1" parent="1">
          <mxGeometry x="410" y="270" width="100" height="40" as="geometry" />
        </mxCell>
        <mxCell id="iV4vv4JSHI51m6sYlncN-25" style="edgeStyle=orthogonalEdgeStyle;rounded=0;orthogonalLoop=1;jettySize=auto;html=1;exitX=1;exitY=0.5;exitDx=0;exitDy=0;entryX=0.527;entryY=-0.086;entryDx=0;entryDy=0;entryPerimeter=0;" edge="1" parent="1" source="iV4vv4JSHI51m6sYlncN-19" target="iV4vv4JSHI51m6sYlncN-2">
          <mxGeometry relative="1" as="geometry" />
        </mxCell>
        <mxCell id="iV4vv4JSHI51m6sYlncN-26" style="edgeStyle=orthogonalEdgeStyle;rounded=0;orthogonalLoop=1;jettySize=auto;html=1;" edge="1" parent="1" source="iV4vv4JSHI51m6sYlncN-19">
          <mxGeometry relative="1" as="geometry">
            <mxPoint x="50" y="229.9999999999999" as="targetPoint" />
          </mxGeometry>
        </mxCell>
        <mxCell id="iV4vv4JSHI51m6sYlncN-19" value="Agent Panel" style="rounded=1;whiteSpace=wrap;html=1;" vertex="1" parent="1">
          <mxGeometry x="100" y="160" width="90" height="40" as="geometry" />
        </mxCell>
        <mxCell id="iV4vv4JSHI51m6sYlncN-32" value="Money Man" style="rounded=1;whiteSpace=wrap;html=1;" vertex="1" parent="1">
          <mxGeometry x="320" y="160" width="90" height="40" as="geometry" />
        </mxCell>
        <mxCell id="iV4vv4JSHI51m6sYlncN-37" value="No Loss Lottery" style="rounded=1;whiteSpace=wrap;html=1;" vertex="1" parent="1">
          <mxGeometry x="360" y="530" width="90" height="40" as="geometry" />
        </mxCell>
        <mxCell id="iV4vv4JSHI51m6sYlncN-39" value="Valentines Payment" style="rounded=1;whiteSpace=wrap;html=1;" vertex="1" parent="1">
          <mxGeometry x="620" y="250" width="90" height="40" as="geometry" />
        </mxCell>
        <mxCell id="iV4vv4JSHI51m6sYlncN-42" value="Nuerkies Logger" style="rounded=1;whiteSpace=wrap;html=1;" vertex="1" parent="1">
          <mxGeometry x="290" y="585" width="100" height="40" as="geometry" />
        </mxCell>
      </root>
    </mxGraphModel>
  </diagram>
</mxfile>
